<?xml version="1.0" encoding="utf-8"?>
<!DOCTYPE svg PUBLIC "-//W3C//DTD SVG 1.0//EN" "http://www.w3.org/TR/2001/REC-SVG-20010904/DTD/svg10.dtd">
<svg version="1.0" xmlns="http://www.w3.org/2000/svg" width="47px" height="54px" viewBox="0 0 47 54" preserveAspectRatio="xMidYMid meet">
 <g fill="#ff6060">
  <path d="M11.2 47 l-10.2 -6.1 0 -9.8 0 -9.9 5.7 -9.9 5.7 -10 11.5 6.7 c6.4 3.7 13.9 8.1 16.6 9.7 l5 2.9 0.3 9.7 c0.2 6.2 -0.1 9.7 -0.8 9.7 -0.6 0 -1 -3.4 -1 -9 l0 -8.9 -4.3 -2.6 c-2.4 -1.4 -4.8 -2.5 -5.3 -2.5 -0.5 0 -3 3.8 -5.6 8.4 l-4.8 8.4 0 9.6 c0 7.2 -0.3 9.6 -1.3 9.6 -0.7 0 -5.9 -2.7 -11.5 -6z"/>
  <path d="M32 41.5 c0 -4.4 0.4 -5.6 2 -6.5 1.9 -1 2 -0.8 2 4.3 0 4.9 -1.2 7.7 -3.2 7.7 -0.4 0 -0.8 -2.5 -0.8 -5.5z"/>
 </g>
</svg>